<?xml version="1.0" standalone="no"?><!DOCTYPE svg PUBLIC "-//W3C//DTD SVG 1.1//EN" "http://www.w3.org/Graphics/SVG/1.1/DTD/svg11.dtd"><svg t="1531204122230" class="icon" style="" viewBox="0 0 1024 1024" version="1.1" xmlns="http://www.w3.org/2000/svg" p-id="2789" xmlns:xlink="http://www.w3.org/1999/xlink" width="200" height="200"><defs><style type="text/css"></style></defs><path d="M512 947.041c-239.882 0-435.041-195.16-435.041-435.041 0-239.882 195.16-435.041 435.041-435.041 239.882 0 435.041 195.16 435.041 435.041 0 239.882-195.16 435.041-435.041 435.041M512 0C229.648 0 0 229.648 0 512c0 282.25 229.648 512 512 512 282.301 0 512-229.75 512-512C1024 229.648 794.301 0 512 0" fill="#707070" p-id="2790"></path><path d="M460.524 610.654h97.119V204.677h-97.12z m59.868 222.178c16.425 0 30.497-5.63 41.703-16.886 11.36-11.309 17.04-25.278 17.04-41.755a55.775 55.775 0 0 0-16.887-41.293 57.463 57.463 0 0 0-41.805-16.528c-16.579 0-30.855 5.526-42.317 16.374a55.263 55.263 0 0 0-17.602 41.447c0 16.733 5.935 30.907 17.602 42.01 11.462 11.053 25.738 16.63 42.317 16.63" fill="#707070" p-id="2791"></path></svg>